<svg data-v-5f19e91b="" xmlns="http://www.w3.org/2000/svg" width="627" height="90" viewBox="0 0 627 90"><!----> <!----> <!----> <g data-v-5f19e91b="" id="a3e9afed-8f77-6602-3620-92ea252f07e9" fill="black" transform="matrix(4.285714285714286,0,0,4.285714285714286,109.48570334911346,4.885713236672537)"><path d="M7.05 3.10L8.07 3.10L9.82 9.16L9.82 9.16Q10.01 9.86 10.17 10.50L10.17 10.50L10.17 10.50Q10.32 11.14 10.42 11.62L10.42 11.62L10.42 11.62Q10.52 11.12 10.65 10.56L10.65 10.56L10.65 10.56Q10.79 10.00 10.98 9.32L10.98 9.32L12.21 5.00L12.21 5.00Q12.23 4.92 12.26 4.82L12.26 4.82L12.26 4.82Q12.28 4.72 12.30 4.61L12.30 4.61L12.30 4.61Q12.33 4.51 12.34 4.42L12.34 4.42L12.34 4.42Q12.36 4.33 12.36 4.27L12.36 4.27L12.36 4.27Q12.36 3.91 12.13 3.75L12.13 3.75L12.13 3.75Q11.90 3.59 11.44 3.59L11.44 3.59L11.12 3.59L11.12 3.00L14.53 3.00L14.53 3.59L14.27 3.59L14.27 3.59Q14.06 3.59 13.91 3.63L13.91 3.63L13.91 3.63Q13.75 3.67 13.63 3.79L13.63 3.79L13.63 3.79Q13.51 3.90 13.41 4.12L13.41 4.12L13.41 4.12Q13.30 4.33 13.20 4.68L13.20 4.68L10.83 13.00L9.58 13.00L7.29 5.15L5.15 13.00L3.86 13.00L1.30 4.33L1.30 4.33Q1.23 4.11 1.15 3.96L1.15 3.96L1.15 3.96Q1.06 3.82 0.94 3.74L0.94 3.74L0.94 3.74Q0.83 3.66 0.67 3.62L0.67 3.62L0.67 3.62Q0.51 3.59 0.31 3.59L0.31 3.59L0.12 3.59L0.12 3.00L3.98 3.00L3.98 3.59L3.66 3.59L3.66 3.59Q3.23 3.59 3.02 3.75L3.02 3.75L3.02 3.75Q2.82 3.91 2.82 4.26L2.82 4.26L2.82 4.26Q2.82 4.38 2.85 4.50L2.85 4.50L2.85 4.50Q2.88 4.62 2.93 4.78L2.93 4.78L4.21 9.26L4.21 9.26Q4.39 9.89 4.55 10.50L4.55 10.50L4.55 10.50Q4.70 11.12 4.82 11.62L4.82 11.62L4.82 11.62Q4.92 11.07 5.06 10.43L5.06 10.43L5.06 10.43Q5.20 9.78 5.39 9.11L5.39 9.11L7.05 3.10ZM14.98 12.41L15.16 12.41L15.16 12.41Q15.39 12.41 15.60 12.38L15.60 12.38L15.60 12.38Q15.81 12.35 15.97 12.25L15.97 12.25L15.97 12.25Q16.13 12.15 16.22 11.97L16.22 11.97L16.22 11.97Q16.31 11.78 16.31 11.47L16.31 11.47L16.31 7.03L16.31 7.03Q16.31 6.73 16.22 6.54L16.22 6.54L16.22 6.54Q16.13 6.35 15.97 6.25L15.97 6.25L15.97 6.25Q15.81 6.15 15.60 6.11L15.60 6.11L15.60 6.11Q15.39 6.08 15.16 6.08L15.16 6.08L15.12 6.08L15.12 5.49L17.62 5.49L17.62 11.40L17.62 11.40Q17.62 11.73 17.72 11.93L17.72 11.93L17.72 11.93Q17.81 12.13 17.96 12.23L17.96 12.23L17.96 12.23Q18.12 12.34 18.33 12.37L18.33 12.37L18.33 12.37Q18.54 12.41 18.77 12.41L18.77 12.41L18.96 12.41L18.96 13.00L14.98 13.00L14.98 12.41ZM16.11 3.22L16.11 3.22L16.11 3.22Q16.11 2.97 16.17 2.81L16.17 2.81L16.17 2.81Q16.24 2.65 16.34 2.54L16.34 2.54L16.34 2.54Q16.45 2.44 16.60 2.40L16.60 2.40L16.60 2.40Q16.74 2.36 16.91 2.36L16.91 2.36L16.91 2.36Q17.08 2.36 17.22 2.40L17.22 2.40L17.22 2.40Q17.36 2.44 17.47 2.54L17.47 2.54L17.47 2.54Q17.58 2.65 17.64 2.81L17.64 2.81L17.64 2.81Q17.71 2.97 17.71 3.22L17.71 3.22L17.71 3.22Q17.71 3.47 17.64 3.63L17.64 3.63L17.64 3.63Q17.58 3.79 17.47 3.90L17.47 3.90L17.47 3.90Q17.36 4.00 17.22 4.04L17.22 4.04L17.22 4.04Q17.08 4.09 16.91 4.09L16.91 4.09L16.91 4.09Q16.74 4.09 16.60 4.04L16.60 4.04L16.60 4.04Q16.45 4.00 16.34 3.90L16.34 3.90L16.34 3.90Q16.24 3.79 16.17 3.63L16.17 3.63L16.17 3.63Q16.11 3.47 16.11 3.22ZM23.64 12.41L23.64 13.00L19.60 13.00L19.60 12.41L19.64 12.41L19.64 12.41Q19.88 12.41 20.09 12.37L20.09 12.37L20.09 12.37Q20.30 12.34 20.45 12.23L20.45 12.23L20.45 12.23Q20.60 12.13 20.70 11.93L20.70 11.93L20.70 11.93Q20.79 11.73 20.79 11.40L20.79 11.40L20.79 7.03L20.79 7.03Q20.79 6.73 20.70 6.54L20.70 6.54L20.70 6.54Q20.60 6.35 20.45 6.25L20.45 6.25L20.45 6.25Q20.29 6.15 20.08 6.11L20.08 6.11L20.08 6.11Q19.87 6.08 19.64 6.08L19.64 6.08L19.60 6.08L19.60 5.49L21.75 5.49L22.02 6.88L22.09 6.88L22.09 6.88Q22.22 6.56 22.37 6.29L22.37 6.29L22.37 6.29Q22.51 6.01 22.72 5.80L22.72 5.80L22.72 5.80Q22.93 5.59 23.24 5.47L23.24 5.47L23.24 5.47Q23.54 5.35 24.01 5.35L24.01 5.35L24.01 5.35Q24.77 5.35 25.15 5.62L25.15 5.62L25.15 5.62Q25.52 5.89 25.52 6.37L25.52 6.37L25.52 6.37Q25.52 6.59 25.45 6.77L25.45 6.77L25.45 6.77Q25.38 6.96 25.22 7.09L25.22 7.09L25.22 7.09Q25.06 7.23 24.81 7.30L24.81 7.30L24.81 7.30Q24.57 7.37 24.21 7.37L24.21 7.37L24.21 7.37Q24.21 6.79 24.05 6.53L24.05 6.53L24.05 6.53Q23.88 6.28 23.47 6.28L23.47 6.28L23.47 6.28Q23.21 6.28 23.01 6.42L23.01 6.42L23.01 6.42Q22.80 6.57 22.65 6.81L22.65 6.81L22.65 6.81Q22.50 7.05 22.39 7.37L22.39 7.37L22.39 7.37Q22.29 7.68 22.22 8.02L22.22 8.02L22.22 8.02Q22.16 8.35 22.13 8.67L22.13 8.67L22.13 8.67Q22.10 9.00 22.10 9.27L22.10 9.27L22.10 11.47L22.10 11.47Q22.10 11.78 22.19 11.97L22.19 11.97L22.19 11.97Q22.29 12.15 22.44 12.25L22.44 12.25L22.44 12.25Q22.60 12.35 22.81 12.38L22.81 12.38L22.81 12.38Q23.02 12.41 23.25 12.41L23.25 12.41L23.64 12.41ZM29.58 6.10L29.58 6.10L29.58 6.10Q28.80 6.10 28.38 6.74L28.38 6.74L28.38 6.74Q27.96 7.37 27.88 8.59L27.88 8.59L31.10 8.59L31.10 8.59Q31.10 8.03 31.02 7.57L31.02 7.57L31.02 7.57Q30.94 7.12 30.76 6.79L30.76 6.79L30.76 6.79Q30.58 6.46 30.29 6.28L30.29 6.28L30.29 6.28Q30.00 6.10 29.58 6.10ZM29.75 13.13L29.75 13.13L29.75 13.13Q28.99 13.13 28.39 12.88L28.39 12.88L28.39 12.88Q27.78 12.62 27.36 12.13L27.36 12.13L27.36 12.13Q26.95 11.63 26.73 10.92L26.73 10.92L26.73 10.92Q26.50 10.21 26.50 9.30L26.50 9.30L26.50 9.30Q26.50 7.33 27.31 6.34L27.31 6.34L27.31 6.34Q28.12 5.35 29.61 5.35L29.61 5.35L29.61 5.35Q30.28 5.35 30.82 5.56L30.82 5.56L30.82 5.56Q31.36 5.78 31.74 6.20L31.74 6.20L31.74 6.20Q32.12 6.62 32.32 7.24L32.32 7.24L32.32 7.24Q32.52 7.87 32.52 8.70L32.52 8.70L32.52 9.34L27.86 9.34L27.86 9.34Q27.87 10.10 28.01 10.65L28.01 10.65L28.01 10.65Q28.15 11.20 28.41 11.56L28.41 11.56L28.41 11.56Q28.68 11.92 29.06 12.08L29.06 12.08L29.06 12.08Q29.44 12.25 29.94 12.25L29.94 12.25L29.94 12.25Q30.30 12.25 30.61 12.17L30.61 12.17L30.61 12.17Q30.93 12.09 31.18 11.95L31.18 11.95L31.18 11.95Q31.43 11.81 31.63 11.64L31.63 11.64L31.63 11.64Q31.82 11.46 31.94 11.27L31.94 11.27L31.94 11.27Q32.04 11.31 32.13 11.44L32.13 11.44L32.13 11.44Q32.21 11.57 32.21 11.75L32.21 11.75L32.21 11.75Q32.21 11.96 32.06 12.21L32.06 12.21L32.06 12.21Q31.91 12.45 31.60 12.65L31.60 12.65L31.60 12.65Q31.29 12.86 30.83 13.00L30.83 13.00L30.83 13.00Q30.37 13.13 29.75 13.13ZM38.83 13.13L38.83 13.13L38.83 13.13Q37.62 13.13 36.71 12.76L36.71 12.76L36.71 12.76Q35.81 12.39 35.21 11.72L35.21 11.72L35.21 11.72Q34.61 11.04 34.32 10.09L34.32 10.09L34.32 10.09Q34.02 9.14 34.02 7.98L34.02 7.98L34.02 7.98Q34.02 6.85 34.33 5.91L34.33 5.91L34.33 5.91Q34.64 4.96 35.26 4.29L35.26 4.29L35.26 4.29Q35.88 3.61 36.80 3.23L36.80 3.23L36.80 3.23Q37.71 2.86 38.92 2.86L38.92 2.86L38.92 2.86Q39.70 2.86 40.28 2.98L40.28 2.98L40.28 2.98Q40.86 3.10 41.24 3.31L41.24 3.31L41.24 3.31Q41.63 3.52 41.82 3.81L41.82 3.81L41.82 3.81Q42.01 4.09 42.01 4.43L42.01 4.43L42.01 4.43Q42.01 4.66 41.91 4.84L41.91 4.84L41.91 4.84Q41.81 5.02 41.63 5.14L41.63 5.14L41.63 5.14Q41.46 5.27 41.22 5.34L41.22 5.34L41.22 5.34Q40.99 5.41 40.71 5.41L40.71 5.41L40.71 5.41Q40.71 5.08 40.62 4.76L40.62 4.76L40.62 4.76Q40.52 4.44 40.30 4.18L40.30 4.18L40.30 4.18Q40.09 3.92 39.73 3.76L39.73 3.76L39.73 3.76Q39.38 3.60 38.86 3.60L38.86 3.60L38.86 3.60Q37.97 3.60 37.35 3.89L37.35 3.89L37.35 3.89Q36.72 4.18 36.33 4.74L36.33 4.74L36.33 4.74Q35.93 5.30 35.75 6.11L35.75 6.11L35.75 6.11Q35.57 6.93 35.57 7.98L35.57 7.98L35.57 7.98Q35.57 9.03 35.76 9.84L35.76 9.84L35.76 9.84Q35.94 10.66 36.36 11.21L36.36 11.21L36.36 11.21Q36.78 11.76 37.44 12.05L37.44 12.05L37.44 12.05Q38.10 12.34 39.06 12.34L39.06 12.34L39.06 12.34Q39.46 12.34 39.84 12.30L39.84 12.30L39.84 12.30Q40.22 12.26 40.52 12.17L40.52 12.17L40.52 9.91L40.52 9.91Q40.52 9.60 40.42 9.42L40.42 9.42L40.42 9.42Q40.33 9.23 40.17 9.13L40.17 9.13L40.17 9.13Q40.02 9.03 39.81 9.00L39.81 9.00L39.81 9.00Q39.60 8.96 39.37 8.96L39.37 8.96L39.31 8.96L39.31 8.37L42.95 8.37L42.95 8.96L42.90 8.96L42.90 8.96Q42.70 8.96 42.52 9.00L42.52 9.00L42.52 9.00Q42.34 9.03 42.21 9.14L42.21 9.14L42.21 9.14Q42.08 9.24 42.01 9.44L42.01 9.44L42.01 9.44Q41.93 9.65 41.93 9.97L41.93 9.97L41.93 12.49L41.93 12.49Q41.23 12.82 40.48 12.97L40.48 12.97L40.48 12.97Q39.74 13.13 38.83 13.13ZM50.59 5.49L50.59 11.47L50.59 11.47Q50.59 11.78 50.69 11.97L50.69 11.97L50.69 11.97Q50.78 12.15 50.93 12.25L50.93 12.25L50.93 12.25Q51.09 12.35 51.30 12.38L51.30 12.38L51.30 12.38Q51.51 12.41 51.74 12.41L51.74 12.41L51.78 12.41L51.78 13.00L49.56 13.00L49.38 11.86L49.31 11.86L49.31 11.86Q49.10 12.26 48.84 12.50L48.84 12.50L48.84 12.50Q48.58 12.75 48.30 12.89L48.30 12.89L48.30 12.89Q48.01 13.03 47.69 13.08L47.69 13.08L47.69 13.08Q47.38 13.13 47.04 13.13L47.04 13.13L47.04 13.13Q46.48 13.13 46.05 12.97L46.05 12.97L46.05 12.97Q45.62 12.82 45.33 12.48L45.33 12.48L45.33 12.48Q45.04 12.15 44.88 11.63L44.88 11.63L44.88 11.63Q44.73 11.11 44.73 10.39L44.73 10.39L44.73 7.03L44.73 7.03Q44.73 6.73 44.64 6.54L44.64 6.54L44.64 6.54Q44.54 6.35 44.39 6.25L44.39 6.25L44.39 6.25Q44.23 6.15 44.02 6.11L44.02 6.11L44.02 6.11Q43.81 6.08 43.58 6.08L43.58 6.08L43.54 6.08L43.54 5.49L46.05 5.49L46.05 10.32L46.05 10.32Q46.05 10.78 46.12 11.14L46.12 11.14L46.12 11.14Q46.19 11.49 46.36 11.74L46.36 11.74L46.36 11.74Q46.53 11.98 46.81 12.11L46.81 12.11L46.81 12.11Q47.09 12.24 47.52 12.24L47.52 12.24L47.52 12.24Q47.98 12.24 48.31 12.07L48.31 12.07L48.31 12.07Q48.64 11.91 48.86 11.61L48.86 11.61L48.86 11.61Q49.08 11.31 49.18 10.90L49.18 10.90L49.18 10.90Q49.28 10.48 49.28 9.97L49.28 9.97L49.28 7.09L49.28 7.09Q49.28 6.76 49.19 6.56L49.19 6.56L49.19 6.56Q49.10 6.36 48.94 6.25L48.94 6.25L48.94 6.25Q48.79 6.15 48.58 6.11L48.58 6.11L48.58 6.11Q48.37 6.08 48.13 6.08L48.13 6.08L48.09 6.08L48.09 5.49L50.59 5.49ZM54.16 10.96L54.16 10.96L54.16 10.96Q54.16 11.62 54.44 11.95L54.44 11.95L54.44 11.95Q54.71 12.27 55.30 12.27L55.30 12.27L55.30 12.27Q55.72 12.27 56.06 12.13L56.06 12.13L56.06 12.13Q56.41 12.00 56.65 11.74L56.65 11.74L56.65 11.74Q56.90 11.49 57.03 11.13L57.03 11.13L57.03 11.13Q57.16 10.77 57.16 10.32L57.16 10.32L57.16 9.19L56.26 9.23L56.26 9.23Q55.67 9.26 55.27 9.38L55.27 9.38L55.27 9.38Q54.87 9.50 54.62 9.71L54.62 9.71L54.62 9.71Q54.37 9.93 54.27 10.24L54.27 10.24L54.27 10.24Q54.16 10.55 54.16 10.96ZM55.86 6.05L55.86 6.05L55.86 6.05Q55.45 6.05 55.20 6.16L55.20 6.16L55.20 6.16Q54.95 6.28 54.81 6.48L54.81 6.48L54.81 6.48Q54.67 6.69 54.63 6.97L54.63 6.97L54.63 6.97Q54.58 7.25 54.58 7.57L54.58 7.57L54.58 7.57Q54.00 7.57 53.69 7.38L53.69 7.38L53.69 7.38Q53.39 7.18 53.39 6.69L53.39 6.69L53.39 6.69Q53.39 6.33 53.59 6.08L53.59 6.08L53.59 6.08Q53.79 5.82 54.13 5.66L54.13 5.66L54.13 5.66Q54.48 5.50 54.93 5.43L54.93 5.43L54.93 5.43Q55.39 5.35 55.91 5.35L55.91 5.35L55.91 5.35Q56.55 5.35 57.03 5.48L57.03 5.48L57.03 5.48Q57.51 5.61 57.83 5.89L57.83 5.89L57.83 5.89Q58.15 6.18 58.31 6.64L58.31 6.64L58.31 6.64Q58.47 7.10 58.47 7.77L58.47 7.77L58.47 11.40L58.47 11.40Q58.47 11.70 58.52 11.89L58.52 11.89L58.52 11.89Q58.57 12.08 58.67 12.20L58.67 12.20L58.67 12.20Q58.78 12.31 58.94 12.36L58.94 12.36L58.94 12.36Q59.11 12.41 59.34 12.41L59.34 12.41L59.38 12.41L59.38 13.00L57.49 13.00L57.27 11.79L57.16 11.79L57.16 11.79Q56.94 12.09 56.73 12.33L56.73 12.33L56.73 12.33Q56.53 12.58 56.28 12.76L56.28 12.76L56.28 12.76Q56.03 12.93 55.72 13.03L55.72 13.03L55.72 13.03Q55.41 13.13 54.97 13.13L54.97 13.13L54.97 13.13Q54.51 13.13 54.11 13.00L54.11 13.00L54.11 13.00Q53.71 12.87 53.42 12.59L53.42 12.59L53.42 12.59Q53.13 12.31 52.96 11.89L52.96 11.89L52.96 11.89Q52.80 11.47 52.80 10.90L52.80 10.90L52.80 10.90Q52.80 9.78 53.59 9.24L53.59 9.24L53.59 9.24Q54.39 8.70 55.99 8.65L55.99 8.65L57.16 8.61L57.16 7.77L57.16 7.77Q57.16 7.40 57.11 7.08L57.11 7.08L57.11 7.08Q57.07 6.76 56.94 6.53L56.94 6.53L56.94 6.53Q56.80 6.30 56.54 6.18L56.54 6.18L56.54 6.18Q56.29 6.05 55.86 6.05ZM64.49 12.41L64.49 13.00L60.45 13.00L60.45 12.41L60.49 12.41L60.49 12.41Q60.73 12.41 60.94 12.37L60.94 12.37L60.94 12.37Q61.15 12.34 61.30 12.23L61.30 12.23L61.30 12.23Q61.46 12.13 61.55 11.93L61.55 11.93L61.55 11.93Q61.64 11.73 61.64 11.40L61.64 11.40L61.64 7.03L61.64 7.03Q61.64 6.73 61.55 6.54L61.55 6.54L61.55 6.54Q61.46 6.35 61.30 6.25L61.30 6.25L61.30 6.25Q61.14 6.15 60.93 6.11L60.93 6.11L60.93 6.11Q60.72 6.08 60.49 6.08L60.49 6.08L60.45 6.08L60.45 5.49L62.60 5.49L62.87 6.88L62.94 6.88L62.94 6.88Q63.08 6.56 63.22 6.29L63.22 6.29L63.22 6.29Q63.36 6.01 63.57 5.80L63.57 5.80L63.57 5.80Q63.78 5.59 64.09 5.47L64.09 5.47L64.09 5.47Q64.39 5.35 64.86 5.35L64.86 5.35L64.86 5.35Q65.63 5.35 66.00 5.62L66.00 5.62L66.00 5.62Q66.37 5.89 66.37 6.37L66.37 6.37L66.37 6.37Q66.37 6.59 66.30 6.77L66.30 6.77L66.30 6.77Q66.23 6.96 66.07 7.09L66.07 7.09L66.07 7.09Q65.91 7.23 65.67 7.30L65.67 7.30L65.67 7.30Q65.42 7.37 65.06 7.37L65.06 7.37L65.06 7.37Q65.06 6.79 64.90 6.53L64.90 6.53L64.90 6.53Q64.74 6.28 64.33 6.28L64.33 6.28L64.33 6.28Q64.07 6.28 63.86 6.42L63.86 6.42L63.86 6.42Q63.66 6.57 63.50 6.81L63.50 6.81L63.50 6.81Q63.35 7.05 63.24 7.37L63.24 7.37L63.24 7.37Q63.14 7.68 63.07 8.02L63.07 8.02L63.07 8.02Q63.01 8.35 62.98 8.67L62.98 8.67L62.98 8.67Q62.95 9.00 62.95 9.27L62.95 9.27L62.95 11.47L62.95 11.47Q62.95 11.78 63.04 11.97L63.04 11.97L63.04 11.97Q63.14 12.15 63.29 12.25L63.29 12.25L63.29 12.25Q63.45 12.35 63.66 12.38L63.66 12.38L63.66 12.38Q63.87 12.41 64.10 12.41L64.10 12.41L64.49 12.41ZM73.66 2.36L73.66 11.46L73.66 11.46Q73.66 11.76 73.76 11.95L73.76 11.95L73.76 11.95Q73.85 12.14 74.01 12.24L74.01 12.24L74.01 12.24Q74.16 12.35 74.37 12.38L74.37 12.38L74.37 12.38Q74.58 12.41 74.81 12.41L74.81 12.41L74.93 12.41L74.93 13.00L72.56 13.00L72.41 11.74L72.35 11.74L72.35 11.74Q72.19 12.06 71.99 12.31L71.99 12.31L71.99 12.31Q71.79 12.57 71.53 12.75L71.53 12.75L71.53 12.75Q71.27 12.93 70.94 13.03L70.94 13.03L70.94 13.03Q70.62 13.13 70.21 13.13L70.21 13.13L70.21 13.13Q69.51 13.13 68.98 12.90L68.98 12.90L68.98 12.90Q68.45 12.67 68.09 12.20L68.09 12.20L68.09 12.20Q67.72 11.72 67.54 10.99L67.54 10.99L67.54 10.99Q67.35 10.26 67.35 9.26L67.35 9.26L67.35 9.26Q67.35 8.24 67.54 7.51L67.54 7.51L67.54 7.51Q67.72 6.77 68.09 6.29L68.09 6.29L68.09 6.29Q68.45 5.81 68.98 5.58L68.98 5.58L68.98 5.58Q69.51 5.35 70.21 5.35L70.21 5.35L70.21 5.35Q70.61 5.35 70.94 5.44L70.94 5.44L70.94 5.44Q71.26 5.53 71.53 5.69L71.53 5.69L71.53 5.69Q71.79 5.86 72.00 6.08L72.00 6.08L72.00 6.08Q72.20 6.31 72.35 6.58L72.35 6.58L72.43 6.58L72.43 6.58Q72.41 6.24 72.39 5.94L72.39 5.94L72.39 5.94Q72.38 5.68 72.37 5.42L72.37 5.42L72.37 5.42Q72.35 5.17 72.35 5.04L72.35 5.04L72.35 3.90L72.35 3.90Q72.35 3.59 72.26 3.40L72.26 3.40L72.26 3.40Q72.17 3.21 72.01 3.11L72.01 3.11L72.01 3.11Q71.85 3.01 71.64 2.98L71.64 2.98L71.64 2.98Q71.44 2.95 71.20 2.95L71.20 2.95L71.09 2.95L71.09 2.36L73.66 2.36ZM70.44 12.24L70.44 12.24L70.44 12.24Q70.99 12.24 71.36 12.06L71.36 12.06L71.36 12.06Q71.72 11.87 71.94 11.50L71.94 11.50L71.94 11.50Q72.17 11.14 72.26 10.58L72.26 10.58L72.26 10.58Q72.35 10.01 72.35 9.26L72.35 9.26L72.35 9.26Q72.35 8.52 72.26 7.96L72.26 7.96L72.26 7.96Q72.17 7.40 71.94 7.02L71.94 7.02L71.94 7.02Q71.72 6.64 71.35 6.45L71.35 6.45L71.35 6.45Q70.98 6.25 70.43 6.25L70.43 6.25L70.43 6.25Q69.97 6.25 69.64 6.45L69.64 6.45L69.64 6.45Q69.32 6.64 69.11 7.03L69.11 7.03L69.11 7.03Q68.90 7.41 68.80 7.97L68.80 7.97L68.80 7.97Q68.71 8.54 68.71 9.27L68.71 9.27L68.71 9.27Q68.71 10.76 69.11 11.50L69.11 11.50L69.11 11.50Q69.51 12.24 70.44 12.24ZM86.85 13.00L79.34 13.00L79.34 12.41L79.52 12.41L79.52 12.41Q79.76 12.41 79.97 12.37L79.97 12.37L79.97 12.37Q80.18 12.34 80.34 12.23L80.34 12.23L80.34 12.23Q80.49 12.13 80.58 11.93L80.58 11.93L80.58 11.93Q80.67 11.73 80.67 11.40L80.67 11.40L80.67 4.59L80.67 4.59Q80.67 4.27 80.58 4.07L80.58 4.07L80.58 4.07Q80.49 3.87 80.34 3.76L80.34 3.76L80.34 3.76Q80.18 3.66 79.97 3.62L79.97 3.62L79.97 3.62Q79.76 3.59 79.52 3.59L79.52 3.59L79.34 3.59L79.34 3.00L83.42 3.00L83.42 3.59L83.23 3.59L83.23 3.59Q83.00 3.59 82.79 3.62L82.79 3.62L82.79 3.62Q82.58 3.65 82.43 3.75L82.43 3.75L82.43 3.75Q82.27 3.86 82.18 4.04L82.18 4.04L82.18 4.04Q82.09 4.23 82.09 4.54L82.09 4.54L82.09 12.30L84.85 12.30L84.85 12.30Q85.16 12.30 85.38 12.19L85.38 12.19L85.38 12.19Q85.61 12.07 85.75 11.89L85.75 11.89L85.75 11.89Q85.89 11.71 85.97 11.48L85.97 11.48L85.97 11.48Q86.05 11.26 86.08 11.03L86.08 11.03L86.21 9.99L86.95 9.99L86.85 13.00ZM87.86 12.41L88.04 12.41L88.04 12.41Q88.27 12.41 88.48 12.38L88.48 12.38L88.48 12.38Q88.69 12.35 88.85 12.25L88.85 12.25L88.85 12.25Q89.00 12.15 89.10 11.97L89.10 11.97L89.10 11.97Q89.19 11.78 89.19 11.47L89.19 11.47L89.19 7.03L89.19 7.03Q89.19 6.73 89.10 6.54L89.10 6.54L89.10 6.54Q89.00 6.35 88.85 6.25L88.85 6.25L88.85 6.25Q88.69 6.15 88.48 6.11L88.48 6.11L88.48 6.11Q88.27 6.08 88.04 6.08L88.04 6.08L88.00 6.08L88.00 5.49L90.50 5.49L90.50 11.40L90.50 11.40Q90.50 11.73 90.59 11.93L90.59 11.93L90.59 11.93Q90.69 12.13 90.84 12.23L90.84 12.23L90.84 12.23Q90.99 12.34 91.21 12.37L91.21 12.37L91.21 12.37Q91.42 12.41 91.65 12.41L91.65 12.41L91.83 12.41L91.83 13.00L87.86 13.00L87.86 12.41ZM88.99 3.22L88.99 3.22L88.99 3.22Q88.99 2.97 89.05 2.81L89.05 2.81L89.05 2.81Q89.11 2.65 89.22 2.54L89.22 2.54L89.22 2.54Q89.33 2.44 89.48 2.40L89.48 2.40L89.48 2.40Q89.62 2.36 89.79 2.36L89.79 2.36L89.79 2.36Q89.95 2.36 90.10 2.40L90.10 2.40L90.10 2.40Q90.24 2.44 90.35 2.54L90.35 2.54L90.35 2.54Q90.45 2.65 90.52 2.81L90.52 2.81L90.52 2.81Q90.58 2.97 90.58 3.22L90.58 3.22L90.58 3.22Q90.58 3.47 90.52 3.63L90.52 3.63L90.52 3.63Q90.45 3.79 90.35 3.90L90.35 3.90L90.35 3.90Q90.24 4.00 90.10 4.04L90.10 4.04L90.10 4.04Q89.95 4.09 89.79 4.09L89.79 4.09L89.79 4.09Q89.62 4.09 89.48 4.04L89.48 4.04L89.48 4.04Q89.33 4.00 89.22 3.90L89.22 3.90L89.22 3.90Q89.11 3.79 89.05 3.63L89.05 3.63L89.05 3.63Q88.99 3.47 88.99 3.22ZM99.37 5.78L99.37 5.78L99.37 5.78Q99.37 5.93 99.33 6.07L99.33 6.07L99.33 6.07Q99.29 6.20 99.20 6.30L99.20 6.30L99.20 6.30Q99.11 6.40 98.97 6.46L98.97 6.46L98.97 6.46Q98.83 6.51 98.64 6.51L98.64 6.51L98.64 6.51Q98.64 6.43 98.62 6.35L98.62 6.35L98.62 6.35Q98.59 6.27 98.54 6.20L98.54 6.20L98.54 6.20Q98.49 6.13 98.40 6.08L98.40 6.08L98.40 6.08Q98.31 6.04 98.17 6.04L98.17 6.04L98.17 6.04Q97.99 6.04 97.85 6.08L97.85 6.08L97.85 6.08Q97.71 6.12 97.57 6.21L97.57 6.21L97.57 6.21Q97.81 6.50 97.96 6.90L97.96 6.90L97.96 6.90Q98.12 7.30 98.12 7.90L98.12 7.90L98.12 7.90Q98.12 8.42 97.96 8.86L97.96 8.86L97.96 8.86Q97.80 9.30 97.49 9.63L97.49 9.63L97.49 9.63Q97.18 9.95 96.70 10.13L96.70 10.13L96.70 10.13Q96.23 10.31 95.59 10.31L95.59 10.31L95.59 10.31Q95.51 10.31 95.41 10.31L95.41 10.31L95.41 10.31Q95.31 10.30 95.20 10.30L95.20 10.30L95.20 10.30Q95.10 10.29 95.01 10.28L95.01 10.28L95.01 10.28Q94.92 10.27 94.87 10.27L94.87 10.27L94.87 10.27Q94.73 10.34 94.61 10.42L94.61 10.42L94.61 10.42Q94.49 10.50 94.39 10.60L94.39 10.60L94.39 10.60Q94.30 10.71 94.25 10.83L94.25 10.83L94.25 10.83Q94.19 10.96 94.19 11.12L94.19 11.12L94.19 11.12Q94.19 11.29 94.26 11.40L94.26 11.40L94.26 11.40Q94.32 11.50 94.44 11.56L94.44 11.56L94.44 11.56Q94.55 11.61 94.72 11.63L94.72 11.63L94.72 11.63Q94.88 11.65 95.06 11.65L95.06 11.65L96.65 11.65L96.65 11.65Q97.28 11.65 97.71 11.81L97.71 11.81L97.71 11.81Q98.15 11.96 98.43 12.24L98.43 12.24L98.43 12.24Q98.70 12.52 98.83 12.90L98.83 12.90L98.83 12.90Q98.96 13.29 98.96 13.74L98.96 13.74L98.96 13.74Q98.96 14.34 98.73 14.83L98.73 14.83L98.73 14.83Q98.51 15.31 98.05 15.65L98.05 15.65L98.05 15.65Q97.60 15.99 96.90 16.17L96.90 16.17L96.90 16.17Q96.20 16.36 95.25 16.36L95.25 16.36L95.25 16.36Q93.78 16.36 93.06 15.82L93.06 15.82L93.06 15.82Q92.33 15.28 92.33 14.31L92.33 14.31L92.33 14.31Q92.33 13.90 92.48 13.60L92.48 13.60L92.48 13.60Q92.62 13.29 92.86 13.07L92.86 13.07L92.86 13.07Q93.11 12.85 93.42 12.71L93.42 12.71L93.42 12.71Q93.73 12.58 94.08 12.52L94.08 12.52L94.08 12.52Q93.94 12.46 93.80 12.35L93.80 12.35L93.80 12.35Q93.67 12.25 93.56 12.11L93.56 12.11L93.56 12.11Q93.45 11.96 93.38 11.78L93.38 11.78L93.38 11.78Q93.31 11.59 93.31 11.37L93.31 11.37L93.31 11.37Q93.31 10.95 93.53 10.65L93.53 10.65L93.53 10.65Q93.75 10.34 94.23 10.06L94.23 10.06L94.23 10.06Q93.93 9.93 93.69 9.72L93.69 9.72L93.69 9.72Q93.45 9.50 93.29 9.23L93.29 9.23L93.29 9.23Q93.13 8.95 93.05 8.62L93.05 8.62L93.05 8.62Q92.96 8.29 92.96 7.94L92.96 7.94L92.96 7.94Q92.96 7.33 93.13 6.86L93.13 6.86L93.13 6.86Q93.29 6.38 93.62 6.04L93.62 6.04L93.62 6.04Q93.95 5.71 94.44 5.53L94.44 5.53L94.44 5.53Q94.93 5.35 95.59 5.35L95.59 5.35L95.59 5.35Q95.85 5.35 96.09 5.39L96.09 5.39L96.09 5.39Q96.34 5.43 96.55 5.49L96.55 5.49L96.55 5.49Q96.76 5.56 96.92 5.64L96.92 5.64L96.92 5.64Q97.09 5.72 97.19 5.81L97.19 5.81L97.19 5.81Q97.30 5.70 97.43 5.57L97.43 5.57L97.43 5.57Q97.57 5.43 97.74 5.32L97.74 5.32L97.74 5.32Q97.91 5.21 98.11 5.13L98.11 5.13L98.11 5.13Q98.31 5.06 98.55 5.06L98.55 5.06L98.55 5.06Q98.76 5.06 98.91 5.12L98.91 5.12L98.91 5.12Q99.07 5.17 99.17 5.27L99.17 5.27L99.17 5.27Q99.27 5.37 99.32 5.51L99.32 5.51L99.32 5.51Q99.37 5.64 99.37 5.78ZM93.47 14.23L93.47 14.23L93.47 14.23Q93.47 14.53 93.55 14.80L93.55 14.80L93.55 14.80Q93.63 15.07 93.84 15.26L93.84 15.26L93.84 15.26Q94.04 15.45 94.39 15.56L94.39 15.56L94.39 15.56Q94.74 15.67 95.27 15.67L95.27 15.67L95.27 15.67Q96.02 15.67 96.51 15.54L96.51 15.54L96.51 15.54Q97.00 15.42 97.29 15.19L97.29 15.19L97.29 15.19Q97.58 14.96 97.69 14.65L97.69 14.65L97.69 14.65Q97.81 14.34 97.81 13.97L97.81 13.97L97.81 13.97Q97.81 13.65 97.72 13.44L97.72 13.44L97.72 13.44Q97.62 13.23 97.44 13.11L97.44 13.11L97.44 13.11Q97.26 13.00 97.00 12.95L97.00 12.95L97.00 12.95Q96.73 12.90 96.38 12.90L96.38 12.90L95.01 12.90L95.01 12.90Q94.71 12.90 94.44 12.95L94.44 12.95L94.44 12.95Q94.16 13.00 93.94 13.15L93.94 13.15L93.94 13.15Q93.73 13.29 93.60 13.55L93.60 13.55L93.60 13.55Q93.47 13.81 93.47 14.23ZM94.28 7.90L94.28 7.90L94.28 7.90Q94.28 8.80 94.58 9.21L94.58 9.21L94.58 9.21Q94.88 9.63 95.55 9.63L95.55 9.63L95.55 9.63Q95.89 9.63 96.13 9.53L96.13 9.53L96.13 9.53Q96.37 9.43 96.52 9.21L96.52 9.21L96.52 9.21Q96.67 9.00 96.73 8.67L96.73 8.67L96.73 8.67Q96.80 8.34 96.80 7.88L96.80 7.88L96.80 7.88Q96.80 6.94 96.51 6.49L96.51 6.49L96.51 6.49Q96.22 6.04 95.54 6.04L95.54 6.04L95.54 6.04Q94.86 6.04 94.57 6.50L94.57 6.50L94.57 6.50Q94.28 6.96 94.28 7.90ZM101.60 10.96L101.60 10.96L101.60 10.96Q101.60 11.62 101.88 11.95L101.88 11.95L101.88 11.95Q102.16 12.27 102.74 12.27L102.74 12.27L102.74 12.27Q103.16 12.27 103.51 12.13L103.51 12.13L103.51 12.13Q103.85 12.00 104.09 11.74L104.09 11.74L104.09 11.74Q104.34 11.49 104.47 11.13L104.47 11.13L104.47 11.13Q104.60 10.77 104.60 10.32L104.60 10.32L104.60 9.19L103.70 9.23L103.70 9.23Q103.11 9.26 102.71 9.38L102.71 9.38L102.71 9.38Q102.31 9.50 102.06 9.71L102.06 9.71L102.06 9.71Q101.81 9.93 101.71 10.24L101.71 10.24L101.71 10.24Q101.60 10.55 101.60 10.96ZM103.30 6.05L103.30 6.05L103.30 6.05Q102.89 6.05 102.65 6.16L102.65 6.16L102.65 6.16Q102.40 6.28 102.26 6.48L102.26 6.48L102.26 6.48Q102.12 6.69 102.07 6.97L102.07 6.97L102.07 6.97Q102.02 7.25 102.02 7.57L102.02 7.57L102.02 7.57Q101.44 7.57 101.13 7.38L101.13 7.38L101.13 7.38Q100.83 7.18 100.83 6.69L100.83 6.69L100.83 6.69Q100.83 6.33 101.03 6.08L101.03 6.08L101.03 6.08Q101.23 5.82 101.57 5.66L101.57 5.66L101.57 5.66Q101.92 5.50 102.38 5.43L102.38 5.43L102.38 5.43Q102.83 5.35 103.35 5.35L103.35 5.35L103.35 5.35Q104.00 5.35 104.47 5.48L104.47 5.48L104.47 5.48Q104.95 5.61 105.27 5.89L105.27 5.89L105.27 5.89Q105.59 6.18 105.76 6.64L105.76 6.64L105.76 6.64Q105.92 7.10 105.92 7.77L105.92 7.77L105.92 11.40L105.92 11.40Q105.92 11.70 105.96 11.89L105.96 11.89L105.96 11.89Q106.01 12.08 106.11 12.20L106.11 12.20L106.11 12.20Q106.22 12.31 106.38 12.36L106.38 12.36L106.38 12.36Q106.55 12.41 106.78 12.41L106.78 12.41L106.83 12.41L106.83 13.00L104.93 13.00L104.71 11.79L104.60 11.79L104.60 11.79Q104.38 12.09 104.17 12.33L104.17 12.33L104.17 12.33Q103.97 12.58 103.72 12.76L103.72 12.76L103.72 12.76Q103.48 12.93 103.16 13.03L103.16 13.03L103.16 13.03Q102.85 13.13 102.42 13.13L102.42 13.13L102.42 13.13Q101.95 13.13 101.55 13.00L101.55 13.00L101.55 13.00Q101.15 12.87 100.86 12.59L100.86 12.59L100.86 12.59Q100.57 12.31 100.41 11.89L100.41 11.89L100.41 11.89Q100.24 11.47 100.24 10.90L100.24 10.90L100.24 10.90Q100.24 9.78 101.04 9.24L101.04 9.24L101.04 9.24Q101.83 8.70 103.43 8.65L103.43 8.65L104.60 8.61L104.60 7.77L104.60 7.77Q104.60 7.40 104.56 7.08L104.56 7.08L104.56 7.08Q104.51 6.76 104.38 6.53L104.38 6.53L104.38 6.53Q104.24 6.30 103.98 6.18L103.98 6.18L103.98 6.18Q103.73 6.05 103.30 6.05ZM110.37 13.13L110.37 13.13L110.37 13.13Q109.84 13.13 109.41 13.04L109.41 13.04L109.41 13.04Q108.99 12.95 108.68 12.76L108.68 12.76L108.68 12.76Q108.38 12.57 108.22 12.29L108.22 12.29L108.22 12.29Q108.06 12.02 108.06 11.65L108.06 11.65L108.06 11.65Q108.06 11.37 108.15 11.18L108.15 11.18L108.15 11.18Q108.24 10.99 108.37 10.88L108.37 10.88L108.37 10.88Q108.51 10.77 108.66 10.73L108.66 10.73L108.66 10.73Q108.81 10.68 108.94 10.68L108.94 10.68L108.94 10.68Q108.94 11.05 109.01 11.38L109.01 11.38L109.01 11.38Q109.09 11.70 109.27 11.94L109.27 11.94L109.27 11.94Q109.44 12.18 109.73 12.32L109.73 12.32L109.73 12.32Q110.02 12.46 110.45 12.46L110.45 12.46L110.45 12.46Q110.82 12.46 111.11 12.37L111.11 12.37L111.11 12.37Q111.40 12.28 111.59 12.11L111.59 12.11L111.59 12.11Q111.79 11.94 111.89 11.71L111.89 11.71L111.89 11.71Q111.99 11.47 111.99 11.19L111.99 11.19L111.99 11.19Q111.99 10.93 111.91 10.74L111.91 10.74L111.91 10.74Q111.84 10.55 111.64 10.39L111.64 10.39L111.64 10.39Q111.45 10.23 111.11 10.06L111.11 10.06L111.11 10.06Q110.78 9.88 110.27 9.67L110.27 9.67L110.27 9.67Q109.73 9.43 109.33 9.20L109.33 9.20L109.33 9.20Q108.93 8.98 108.67 8.72L108.67 8.72L108.67 8.72Q108.41 8.46 108.28 8.13L108.28 8.13L108.28 8.13Q108.15 7.80 108.15 7.34L108.15 7.34L108.15 7.34Q108.15 6.86 108.34 6.49L108.34 6.49L108.34 6.49Q108.53 6.13 108.88 5.88L108.88 5.88L108.88 5.88Q109.22 5.63 109.71 5.50L109.71 5.50L109.71 5.50Q110.20 5.37 110.79 5.37L110.79 5.37L110.79 5.37Q111.29 5.37 111.67 5.47L111.67 5.47L111.67 5.47Q112.05 5.57 112.31 5.75L112.31 5.75L112.31 5.75Q112.57 5.92 112.70 6.16L112.70 6.16L112.70 6.16Q112.83 6.39 112.83 6.65L112.83 6.65L112.83 6.65Q112.83 7.03 112.57 7.26L112.57 7.26L112.57 7.26Q112.31 7.49 111.82 7.49L111.82 7.49L111.82 7.49Q111.82 6.79 111.53 6.40L111.53 6.40L111.53 6.40Q111.24 6.01 110.62 6.01L110.62 6.01L110.62 6.01Q110.26 6.01 110.01 6.09L110.01 6.09L110.01 6.09Q109.76 6.17 109.60 6.32L109.60 6.32L109.60 6.32Q109.44 6.47 109.36 6.68L109.36 6.68L109.36 6.68Q109.29 6.88 109.29 7.13L109.29 7.13L109.29 7.13Q109.29 7.40 109.38 7.59L109.38 7.59L109.38 7.59Q109.48 7.79 109.69 7.95L109.69 7.95L109.69 7.95Q109.89 8.11 110.23 8.27L110.23 8.27L110.23 8.27Q110.56 8.42 111.02 8.61L111.02 8.61L111.02 8.61Q111.58 8.85 111.97 9.07L111.97 9.07L111.97 9.07Q112.37 9.30 112.63 9.56L112.63 9.56L112.63 9.56Q112.88 9.83 113.00 10.17L113.00 10.17L113.00 10.17Q113.13 10.50 113.13 10.94L113.13 10.94L113.13 10.94Q113.13 11.48 112.93 11.89L112.93 11.89L112.93 11.89Q112.73 12.30 112.37 12.58L112.37 12.58L112.37 12.58Q112.01 12.86 111.50 13.00L111.50 13.00L111.50 13.00Q110.99 13.13 110.37 13.13ZM117.59 6.10L117.59 6.10L117.59 6.10Q116.81 6.10 116.39 6.74L116.39 6.74L116.39 6.74Q115.97 7.37 115.90 8.59L115.90 8.59L119.12 8.59L119.12 8.59Q119.12 8.03 119.03 7.57L119.03 7.57L119.03 7.57Q118.95 7.12 118.77 6.79L118.77 6.79L118.77 6.79Q118.60 6.46 118.31 6.28L118.31 6.28L118.31 6.28Q118.02 6.10 117.59 6.10ZM117.76 13.13L117.76 13.13L117.76 13.13Q117.00 13.13 116.40 12.88L116.40 12.88L116.40 12.88Q115.79 12.62 115.38 12.13L115.38 12.13L115.38 12.13Q114.96 11.63 114.74 10.92L114.74 10.92L114.74 10.92Q114.52 10.21 114.52 9.30L114.52 9.30L114.52 9.30Q114.52 7.33 115.32 6.34L115.32 6.34L115.32 6.34Q116.13 5.35 117.62 5.35L117.62 5.35L117.62 5.35Q118.30 5.35 118.84 5.56L118.84 5.56L118.84 5.56Q119.38 5.78 119.75 6.20L119.75 6.20L119.75 6.20Q120.13 6.62 120.33 7.24L120.33 7.24L120.33 7.24Q120.53 7.87 120.53 8.70L120.53 8.70L120.53 9.34L115.87 9.34L115.87 9.34Q115.88 10.10 116.02 10.65L116.02 10.65L116.02 10.65Q116.16 11.20 116.43 11.56L116.43 11.56L116.43 11.56Q116.69 11.92 117.07 12.08L117.07 12.08L117.07 12.08Q117.46 12.25 117.95 12.25L117.95 12.25L117.95 12.25Q118.32 12.25 118.63 12.17L118.63 12.17L118.63 12.17Q118.94 12.09 119.19 11.95L119.19 11.95L119.19 11.95Q119.44 11.81 119.64 11.64L119.64 11.64L119.64 11.64Q119.83 11.46 119.96 11.27L119.96 11.27L119.96 11.27Q120.05 11.31 120.14 11.44L120.14 11.44L120.14 11.44Q120.22 11.57 120.22 11.75L120.22 11.75L120.22 11.75Q120.22 11.96 120.07 12.21L120.07 12.21L120.07 12.21Q119.92 12.45 119.62 12.65L119.62 12.65L119.62 12.65Q119.31 12.86 118.85 13.00L118.85 13.00L118.85 13.00Q118.38 13.13 117.76 13.13Z"></path></g> <!----> <g data-v-5f19e91b="" id="420ed0a9-217f-31fb-a8e5-2165a02c87b0" transform="matrix(0.9090909090909091,0,0,0.9090909090909091,0.045454545454546746,0.045454545454546746)" stroke="none" fill="black"><g><path d="M50,0.5C22.7,0.5,0.5,22.7,0.5,50S22.7,99.5,50,99.5S99.5,77.3,99.5,50S77.3,0.5,50,0.5z M28.8,89.2c0-1.4,1.1-2.5,2.5-2.5   c1.4,0,2.5,1.1,2.5,2.5s-1.1,2.5-2.5,2.5S28.8,90.6,28.8,89.2z M63.5,90.5c0-1.4,1.1-2.5,2.5-2.5s2.5,1.1,2.5,2.5S67.4,93,66,93   S63.5,91.9,63.5,90.5z M79,86.3c-9.7-5.8-11.5-9.6-11.2-11.7c0-0.4,0.1-0.6,0.2-0.9c0.2-0.5,0.4-1.1,0.4-2.1   c-0.2-3.4-2.9-5.2-5.6-7c-2.3-1.5-4.6-3.1-5.8-5.7c-1-2.1-1.1-4.7-0.4-7.7c0.2-0.8-0.3-1.6-1.1-1.8s-1.6,0.3-1.8,1.1   c-0.9,3.7-0.7,7,0.6,9.7c1.6,3.3,4.4,5.2,6.9,6.9c2.6,1.7,4.2,2.9,4.2,4.6c0,0.4,0,0.5-0.2,0.9c-0.1,0.4-0.3,0.9-0.4,1.6   c-0.5,4.3,3.3,8.9,11.6,14c-1.6,1.1-3.2,2.1-4.9,3c0-0.2,0.1-0.5,0.1-0.7c0-3-2.5-5.5-5.5-5.5s-5.5,2.5-5.5,5.5   c0,1.7,0.8,3.3,2,4.3c-4,1.1-8.2,1.7-12.5,1.7c-5.5,0-10.8-1-15.6-2.7c1.4-1,2.4-2.7,2.4-4.5c0-3-2.5-5.5-5.5-5.5s-5.5,2.5-5.5,5.5   c0,0.1,0,0.3,0,0.4c-2.2-1.4-4.4-2.9-6.3-4.7c3.6-4.4,6.8-7.6,9.7-9.8c0.5,2.5,2.7,4.3,5.4,4.3c3,0,5.5-2.5,5.5-5.5   c0-1.1-0.3-2.1-0.9-3c0.3-0.2,0.6-0.5,0.8-0.8c1.4-1.9,0.9-4,0.4-6.1c-0.3-1.3-0.7-2.6-0.6-4c0.2-2.9,2.5-5.8,6.9-8.7   c0.7-0.5,0.9-1.4,0.4-2.1c-0.5-0.7-1.4-0.9-2.1-0.4c-5.2,3.4-8,7.1-8.3,11c-0.1,1.8,0.3,3.5,0.7,4.9c0.5,1.8,0.7,2.8,0.2,3.5   c-0.2,0.3-0.5,0.5-0.9,0.6c-0.7-0.3-1.4-0.5-2.2-0.5c-2,0-3.7,1.1-4.7,2.7c-0.1,0-0.1,0.1-0.2,0.1c-3.6,2.1-7.7,6-12.3,11.6   C8.8,74.5,3.5,62.9,3.5,50C3.5,24.4,24.4,3.5,50,3.5S96.5,24.4,96.5,50C96.5,64.7,89.6,77.8,79,86.3z M37,74.1   c0,1.4-1.1,2.5-2.5,2.5S32,75.5,32,74.1s1.1-2.5,2.5-2.5S37,72.7,37,74.1z"></path><path d="M50,21.5c-14.6,0-26.5,11.9-26.5,26.5v14c0,0.8,0.7,1.5,1.5,1.5s1.5-0.7,1.5-1.5v-9.6h7V62c0,0.8,0.7,1.5,1.5,1.5   s1.5-0.7,1.5-1.5V48c0-7.4,6.1-13.5,13.5-13.5S63.5,40.6,63.5,48v14c0,0.8,0.7,1.5,1.5,1.5s1.5-0.7,1.5-1.5V48   c0-1.6-0.2-3.1-0.7-4.5l6.2-3.6c0.9,2.5,1.4,5.3,1.4,8.1v14c0,0.8,0.7,1.5,1.5,1.5s1.5-0.7,1.5-1.5V48C76.5,33.4,64.6,21.5,50,21.5   z M51.5,31.6v-7c3.7,0.2,7.2,1.3,10.2,3.1l-3.5,6.1C56.2,32.5,53.9,31.8,51.5,31.6z M41.8,33.7l-3.5-6.1c3-1.7,6.5-2.8,10.2-3.1v7   C46.1,31.8,43.8,32.5,41.8,33.7z M26.5,49.4V48c0-2.9,0.5-5.6,1.4-8.1l6.2,3.6c-0.4,1.4-0.7,3-0.7,4.5v1.4H26.5z M35.3,40.6   l-6.1-3.5c1.6-3.1,3.9-5.7,6.6-7.8l3.5,6.1C37.7,36.9,36.3,38.6,35.3,40.6z M64.7,40.6c-1-2-2.4-3.8-4.1-5.2l3.5-6.1   c2.7,2.1,5,4.8,6.6,7.8L64.7,40.6z"></path><circle cx="43.2" cy="67.5" r="1.5"></circle><circle cx="46.6" cy="59.9" r="1.5"></circle><circle cx="41.9" cy="80.6" r="1.5"></circle><circle cx="56.6" cy="68.6" r="1.5"></circle><circle cx="50.2" cy="92.6" r="1.5"></circle><path d="M49.8,80.6c0,3,2.5,5.5,5.5,5.5s5.5-2.5,5.5-5.5s-2.5-5.5-5.5-5.5S49.8,77.6,49.8,80.6z M55.2,78.1c1.4,0,2.5,1.1,2.5,2.5   s-1.1,2.5-2.5,2.5s-2.5-1.1-2.5-2.5S53.9,78.1,55.2,78.1z"></path></g></g></svg>